<svg version="1.1" xmlns="http://www.w3.org/2000/svg" xmlns:xlink="http://www.w3.org/1999/xlink" width="714" height="614"><defs/><g><text fill="#eeeeee" stroke="none" font-family="Arial" font-size="24px" font-style="normal" font-weight="normal" text-decoration="none" x="0" y="0"></text><text fill="#eeeeee" stroke="none" font-family="Arial" font-size="24px" font-style="normal" font-weight="normal" text-decoration="none" x="0" y="30"></text><text fill="#eeeeee" stroke="none" font-family="Arial" font-size="24px" font-style="normal" font-weight="normal" text-decoration="none" x="0" y="60"></text><text fill="#eeeeee" stroke="none" font-family="Arial" font-size="24px" font-style="normal" font-weight="normal" text-decoration="none" x="0" y="90"></text><text fill="#eeeeee" stroke="none" font-family="Arial" font-size="24px" font-style="normal" font-weight="normal" text-decoration="none" x="0" y="120"></text><text fill="#eeeeee" stroke="none" font-family="Arial" font-size="24px" font-style="normal" font-weight="normal" text-decoration="none" x="0" y="150"></text><text fill="#eeeeee" stroke="none" font-family="Arial" font-size="24px" font-style="normal" font-weight="normal" text-decoration="none" x="0" y="180"></text><text fill="#eeeeee" stroke="none" font-family="Arial" font-size="24px" font-style="normal" font-weight="normal" text-decoration="none" x="0" y="210"></text><text fill="#eeeeee" stroke="none" font-family="Arial" font-size="24px" font-style="normal" font-weight="normal" text-decoration="none" x="0" y="240"></text><text fill="#eeeeee" stroke="none" font-family="Arial" font-size="24px" font-style="normal" font-weight="normal" text-decoration="none" x="0" y="270"></text><text fill="#eeeeee" stroke="none" font-family="Arial" font-size="24px" font-style="normal" font-weight="normal" text-decoration="none" x="0" y="300"></text><text fill="#eeeeee" stroke="none" font-family="Arial" font-size="24px" font-style="normal" font-weight="normal" text-decoration="none" x="0" y="330"></text><text fill="#eeeeee" stroke="none" font-family="Arial" font-size="24px" font-style="normal" font-weight="normal" text-decoration="none" x="0" y="360"></text><text fill="#eeeeee" stroke="none" font-family="Arial" font-size="24px" font-style="normal" font-weight="normal" text-decoration="none" x="0" y="390"></text><text fill="#eeeeee" stroke="none" font-family="Arial" font-size="24px" font-style="normal" font-weight="normal" text-decoration="none" x="0" y="420"></text><text fill="#eeeeee" stroke="none" font-family="Arial" font-size="24px" font-style="normal" font-weight="normal" text-decoration="none" x="0" y="450"></text><text fill="#eeeeee" stroke="none" font-family="Arial" font-size="24px" font-style="normal" font-weight="normal" text-decoration="none" x="0" y="480"></text><text fill="#eeeeee" stroke="none" font-family="Arial" font-size="24px" font-style="normal" font-weight="normal" text-decoration="none" x="0" y="510"></text><text fill="#eeeeee" stroke="none" font-family="Arial" font-size="24px" font-style="normal" font-weight="normal" text-decoration="none" x="0" y="540"></text><text fill="#eeeeee" stroke="none" font-family="Arial" font-size="24px" font-style="normal" font-weight="normal" text-decoration="none" x="0" y="570"></text><text fill="#eeeeee" stroke="none" font-family="Arial" font-size="24px" font-style="normal" font-weight="normal" text-decoration="none" x="0" y="600"></text><text fill="#eeeeee" stroke="none" font-family="Arial" font-size="24px" font-style="normal" font-weight="normal" text-decoration="none" x="200" y="0"></text><text fill="#eeeeee" stroke="none" font-family="Arial" font-size="24px" font-style="normal" font-weight="normal" text-decoration="none" x="200" y="30"></text><text fill="#eeeeee" stroke="none" font-family="Arial" font-size="24px" font-style="normal" font-weight="normal" text-decoration="none" x="200" y="60"></text><text fill="#eeeeee" stroke="none" font-family="Arial" font-size="24px" font-style="normal" font-weight="normal" text-decoration="none" x="200" y="90"></text><text fill="#eeeeee" stroke="none" font-family="Arial" font-size="24px" font-style="normal" font-weight="normal" text-decoration="none" x="200" y="120"></text><text fill="#eeeeee" stroke="none" font-family="Arial" font-size="24px" font-style="normal" font-weight="normal" text-decoration="none" x="200" y="150"></text><text fill="#eeeeee" stroke="none" font-family="Arial" font-size="24px" font-style="normal" font-weight="normal" text-decoration="none" x="200" y="180"></text><text fill="#eeeeee" stroke="none" font-family="Arial" font-size="24px" font-style="normal" font-weight="normal" text-decoration="none" x="200" y="210"></text><text fill="#eeeeee" stroke="none" font-family="Arial" font-size="24px" font-style="normal" font-weight="normal" text-decoration="none" x="200" y="240"></text><text fill="#eeeeee" stroke="none" font-family="Arial" font-size="24px" font-style="normal" font-weight="normal" text-decoration="none" x="200" y="270"></text><text fill="#eeeeee" stroke="none" font-family="Arial" font-size="24px" font-style="normal" font-weight="normal" text-decoration="none" x="200" y="300"></text><text fill="#eeeeee" stroke="none" font-family="Arial" font-size="24px" font-style="normal" font-weight="normal" text-decoration="none" x="200" y="330"></text><text fill="#eeeeee" stroke="none" font-family="Arial" font-size="24px" font-style="normal" font-weight="normal" text-decoration="none" x="200" y="360"></text><text fill="#eeeeee" stroke="none" font-family="Arial" font-size="24px" font-style="normal" font-weight="normal" text-decoration="none" x="200" y="390"></text><text fill="#eeeeee" stroke="none" font-family="Arial" font-size="24px" font-style="normal" font-weight="normal" text-decoration="none" x="200" y="420"></text><text fill="#eeeeee" stroke="none" font-family="Arial" font-size="24px" font-style="normal" font-weight="normal" text-decoration="none" x="200" y="450"></text><text fill="#eeeeee" stroke="none" font-family="Arial" font-size="24px" font-style="normal" font-weight="normal" text-decoration="none" x="200" y="480"></text><text fill="#eeeeee" stroke="none" font-family="Arial" font-size="24px" font-style="normal" font-weight="normal" text-decoration="none" x="200" y="510"></text><text fill="#eeeeee" stroke="none" font-family="Arial" font-size="24px" font-style="normal" font-weight="normal" text-decoration="none" x="200" y="540"></text><text fill="#eeeeee" stroke="none" font-family="Arial" font-size="24px" font-style="normal" font-weight="normal" text-decoration="none" x="200" y="570"></text><text fill="#eeeeee" stroke="none" font-family="Arial" font-size="24px" font-style="normal" font-weight="normal" text-decoration="none" x="200" y="600"></text><text fill="#eeeeee" stroke="none" font-family="Arial" font-size="24px" font-style="normal" font-weight="normal" text-decoration="none" x="400" y="0"></text><text fill="#eeeeee" stroke="none" font-family="Arial" font-size="24px" font-style="normal" font-weight="normal" text-decoration="none" x="400" y="30"></text><text fill="#eeeeee" stroke="none" font-family="Arial" font-size="24px" font-style="normal" font-weight="normal" text-decoration="none" x="400" y="60"></text><text fill="#eeeeee" stroke="none" font-family="Arial" font-size="24px" font-style="normal" font-weight="normal" text-decoration="none" x="400" y="90"></text><text fill="#eeeeee" stroke="none" font-family="Arial" font-size="24px" font-style="normal" font-weight="normal" text-decoration="none" x="400" y="120"></text><text fill="#eeeeee" stroke="none" font-family="Arial" font-size="24px" font-style="normal" font-weight="normal" text-decoration="none" x="400" y="150"></text><text fill="#eeeeee" stroke="none" font-family="Arial" font-size="24px" font-style="normal" font-weight="normal" text-decoration="none" x="400" y="180"></text><text fill="#eeeeee" stroke="none" font-family="Arial" font-size="24px" font-style="normal" font-weight="normal" text-decoration="none" x="400" y="210"></text><text fill="#eeeeee" stroke="none" font-family="Arial" font-size="24px" font-style="normal" font-weight="normal" text-decoration="none" x="400" y="240"></text><text fill="#eeeeee" stroke="none" font-family="Arial" font-size="24px" font-style="normal" font-weight="normal" text-decoration="none" x="400" y="270"></text><text fill="#eeeeee" stroke="none" font-family="Arial" font-size="24px" font-style="normal" font-weight="normal" text-decoration="none" x="400" y="300"></text><text fill="#eeeeee" stroke="none" font-family="Arial" font-size="24px" font-style="normal" font-weight="normal" text-decoration="none" x="400" y="330"></text><text fill="#eeeeee" stroke="none" font-family="Arial" font-size="24px" font-style="normal" font-weight="normal" text-decoration="none" x="400" y="360"></text><text fill="#eeeeee" stroke="none" font-family="Arial" font-size="24px" font-style="normal" font-weight="normal" text-decoration="none" x="400" y="390"></text><text fill="#eeeeee" stroke="none" font-family="Arial" font-size="24px" font-style="normal" font-weight="normal" text-decoration="none" x="400" y="420"></text><text fill="#eeeeee" stroke="none" font-family="Arial" font-size="24px" font-style="normal" font-weight="normal" text-decoration="none" x="400" y="450"></text><text fill="#eeeeee" stroke="none" font-family="Arial" font-size="24px" font-style="normal" font-weight="normal" text-decoration="none" x="400" y="480"></text><text fill="#eeeeee" stroke="none" font-family="Arial" font-size="24px" font-style="normal" font-weight="normal" text-decoration="none" x="400" y="510"></text><text fill="#eeeeee" stroke="none" font-family="Arial" font-size="24px" font-style="normal" font-weight="normal" text-decoration="none" x="400" y="540"></text><text fill="#eeeeee" stroke="none" font-family="Arial" font-size="24px" font-style="normal" font-weight="normal" text-decoration="none" x="400" y="570"></text><text fill="#eeeeee" stroke="none" font-family="Arial" font-size="24px" font-style="normal" font-weight="normal" text-decoration="none" x="400" y="600"></text><text fill="#eeeeee" stroke="none" font-family="Arial" font-size="24px" font-style="normal" font-weight="normal" text-decoration="none" x="600" y="0"></text><text fill="#eeeeee" stroke="none" font-family="Arial" font-size="24px" font-style="normal" font-weight="normal" text-decoration="none" x="600" y="30"></text><text fill="#eeeeee" stroke="none" font-family="Arial" font-size="24px" font-style="normal" font-weight="normal" text-decoration="none" x="600" y="60"></text><text fill="#eeeeee" stroke="none" font-family="Arial" font-size="24px" font-style="normal" font-weight="normal" text-decoration="none" x="600" y="90"></text><text fill="#eeeeee" stroke="none" font-family="Arial" font-size="24px" font-style="normal" font-weight="normal" text-decoration="none" x="600" y="120"></text><text fill="#eeeeee" stroke="none" font-family="Arial" font-size="24px" font-style="normal" font-weight="normal" text-decoration="none" x="600" y="150"></text><text fill="#eeeeee" stroke="none" font-family="Arial" font-size="24px" font-style="normal" font-weight="normal" text-decoration="none" x="600" y="180"></text><text fill="#eeeeee" stroke="none" font-family="Arial" font-size="24px" font-style="normal" font-weight="normal" text-decoration="none" x="600" y="210"></text><text fill="#eeeeee" stroke="none" font-family="Arial" font-size="24px" font-style="normal" font-weight="normal" text-decoration="none" x="600" y="240"></text><text fill="#eeeeee" stroke="none" font-family="Arial" font-size="24px" font-style="normal" font-weight="normal" text-decoration="none" x="600" y="270"></text><text fill="#eeeeee" stroke="none" font-family="Arial" font-size="24px" font-style="normal" font-weight="normal" text-decoration="none" x="600" y="300"></text><text fill="#eeeeee" stroke="none" font-family="Arial" font-size="24px" font-style="normal" font-weight="normal" text-decoration="none" x="600" y="330"></text><text fill="#eeeeee" stroke="none" font-family="Arial" font-size="24px" font-style="normal" font-weight="normal" text-decoration="none" x="600" y="360"></text><text fill="#eeeeee" stroke="none" font-family="Arial" font-size="24px" font-style="normal" font-weight="normal" text-decoration="none" x="600" y="390"></text><text fill="#eeeeee" stroke="none" font-family="Arial" font-size="24px" font-style="normal" font-weight="normal" text-decoration="none" x="600" y="420"></text><text fill="#eeeeee" stroke="none" font-family="Arial" font-size="24px" font-style="normal" font-weight="normal" text-decoration="none" x="600" y="450"></text><text fill="#eeeeee" stroke="none" font-family="Arial" font-size="24px" font-style="normal" font-weight="normal" text-decoration="none" x="600" y="480"></text><text fill="#eeeeee" stroke="none" font-family="Arial" font-size="24px" font-style="normal" font-weight="normal" text-decoration="none" x="600" y="510"></text><text fill="#eeeeee" stroke="none" font-family="Arial" font-size="24px" font-style="normal" font-weight="normal" text-decoration="none" x="600" y="540"></text><text fill="#eeeeee" stroke="none" font-family="Arial" font-size="24px" font-style="normal" font-weight="normal" text-decoration="none" x="600" y="570"></text><text fill="#eeeeee" stroke="none" font-family="Arial" font-size="24px" font-style="normal" font-weight="normal" text-decoration="none" x="600" y="600"></text><g transform="translate(10,5) scale(1,1)"><path fill="none" stroke="#000000" d="M 0 5 L 694 5 L 694 599 L 0 599 L 0 5" stroke-miterlimit="10"/></g><g transform="translate(10,5) scale(1,1)"><path fill="#ffffff" stroke="none" d="M 0 5 L 0 27 L 253.732421875 27 L 264.732421875 16 L 264.732421875 5 L 0 5"/></g><g transform="translate(10,5) scale(1,1)"><path fill="none" stroke="#000000" d="M 0 5 L 0 27 L 253.732421875 27 L 264.732421875 16 L 264.732421875 5 L 0 5 L 0 5" stroke-miterlimit="10"/></g><g transform="translate(10,5) scale(1,1)"><g><path fill="none" stroke="none"/><text fill="#000000" stroke="none" font-family="Arial" font-size="13px" font-style="normal" font-weight="normal" text-decoration="none" x="70.97900390625" y="22.5">commentez document examen</text></g></g><g transform="translate(10,5) scale(1,1)"><g><path fill="none" stroke="none"/><text fill="#000000" stroke="none" font-family="Arial" font-size="13px" font-style="normal" font-weight="bold" text-decoration="none" x="5" y="22.5">interaction</text></g></g><g transform="translate(10,5) scale(1,1)"><path fill="#ffffff" stroke="none" d="M 89.1954208096591 47.3 C 89.1954208096591 43.82060576 92.07382253184092 41 95.62451171875 41 C 99.17520090565908 41 102.0536026278409 43.82060576 102.0536026278409 47.3 C 102.0536026278409 50.779394239999995 99.17520090565908 53.6 95.62451171875 53.6 C 92.07382253184092 53.6 89.1954208096591 50.779394239999995 89.1954208096591 47.3 Z"/></g><g transform="translate(10,5) scale(1,1)"><path fill="none" stroke="#000000" d="M 89.1954208096591 47.3 C 89.1954208096591 43.82060576 92.07382253184092 41 95.62451171875 41 C 99.17520090565908 41 102.0536026278409 43.82060576 102.0536026278409 47.3 C 102.0536026278409 50.779394239999995 99.17520090565908 53.6 95.62451171875 53.6 C 92.07382253184092 53.6 89.1954208096591 50.779394239999995 89.1954208096591 47.3 Z" stroke-miterlimit="10"/></g><g transform="translate(10,5) scale(1,1)"><path fill="none" stroke="#000000" d="M 95.62451171875 53.6 L 95.62451171875 66.4" stroke-miterlimit="10"/></g><g transform="translate(10,5) scale(1,1)"><path fill="none" stroke="#000000" d="M 88.81723899147727 58.4 L 102.43178444602273 58.4" stroke-miterlimit="10"/></g><g transform="translate(10,5) scale(1,1)"><path fill="none" stroke="#000000" d="M 95.62451171875 66.4 L 86.16996626420455 79" stroke-miterlimit="10"/></g><g transform="translate(10,5) scale(1,1)"><path fill="none" stroke="#000000" d="M 95.62451171875 66.4 L 105.07905717329545 79" stroke-miterlimit="10"/></g><g transform="translate(10,5) scale(1,1)"><g><path fill="none" stroke="none"/><text fill="#000000" stroke="none" font-family="Arial" font-size="13px" font-style="normal" font-weight="normal" text-decoration="none" x="95.62451171875" y="97.5"></text></g></g><g transform="translate(10,5) scale(1,1)"><g><path fill="none" stroke="none"/><text fill="#000000" stroke="none" font-family="Arial" font-size="13px" font-style="normal" font-weight="bold" text-decoration="none" x="38.90185546875" y="112.5">Lifeline1: Utilisateur</text></g></g><g transform="translate(10,5) scale(1,1)"><path fill="none" stroke="#000000" d="M 96.5 118 L 96.5 592" stroke-miterlimit="10" stroke-dasharray="3"/></g><g transform="translate(10,5) scale(1,1)"><rect fill="#C0C0C0" stroke="none" x="487" y="47" width="71.736328125" height="39" opacity="0.2"/></g><g transform="translate(10,5) scale(1,1)"><rect fill="#ffffff" stroke="none" x="480" y="40" width="71.736328125" height="39"/></g><g transform="translate(10,5) scale(1,1)"><path fill="none" stroke="#000000" d="M 480 40 L 551.736328125 40 L 551.736328125 79 L 480 79 L 480 40 Z Z" stroke-miterlimit="10"/></g><g transform="translate(10,5) scale(1,1)"><g><path fill="none" stroke="none"/><text fill="#000000" stroke="none" font-family="Arial" font-size="13px" font-style="normal" font-weight="bold" text-decoration="none" x="494.197265625" y="59.5">System</text></g></g><g transform="translate(10,5) scale(1,1)"><path fill="none" stroke="#000000" d="M 516.5 80 L 516.5 592" stroke-miterlimit="10" stroke-dasharray="3"/></g><g transform="translate(10,5) scale(1,1)"><path fill="#ffffff" stroke="none" d="M 425.906982421875 104 L 605.093017578125 104 Q 615.093017578125 104 615.093017578125 114 L 615.093017578125 113 Q 615.093017578125 123 605.093017578125 123 L 425.906982421875 123 Q 415.906982421875 123 415.906982421875 113 L 415.906982421875 114 Q 415.906982421875 104 425.906982421875 104 Z"/></g><g transform="translate(10,5) scale(1,1)"><path fill="none" stroke="#000000" d="M 425.906982421875 104 L 605.093017578125 104 Q 615.093017578125 104 615.093017578125 114 L 615.093017578125 113 Q 615.093017578125 123 605.093017578125 123 L 425.906982421875 123 Q 415.906982421875 123 415.906982421875 113 L 415.906982421875 114 Q 415.906982421875 104 425.906982421875 104 Z" stroke-miterlimit="10"/></g><g transform="translate(10,5) scale(1,1)"><g><path fill="none" stroke="none"/><text fill="#000000" stroke="none" font-family="Arial" font-size="13px" font-style="normal" font-weight="normal" text-decoration="none" x="432.87255859375" y="120">{doccument choisi et affiché}</text></g></g><g transform="translate(10,5) scale(1,1)"><path fill="none" stroke="#000000" d="M 96 184 L 509 184" stroke-miterlimit="10"/></g><g transform="translate(10,5) scale(1,1)"><path fill="#000000" stroke="none" d="M 498.83732514237585 188.209517756016 L 509 184 L 498.83732514237585 179.790482243984"/></g><g transform="translate(10,5) scale(1,1)"><path fill="none" stroke="#000000" d="M 498.83732514237585 188.209517756016 L 509 184 L 498.83732514237585 179.790482243984 L 498.83732514237585 188.209517756016" stroke-miterlimit="10"/></g><g transform="translate(10,5) scale(1,1)"><g><path fill="none" stroke="none"/><text fill="#000000" stroke="none" font-family="Arial" font-size="13px" font-style="normal" font-weight="normal" text-decoration="none" x="136.5" y="180.5">1 : basculer vers le bas du page et cliquer sur commenter</text></g></g><g transform="translate(10,5) scale(1,1)"><rect fill="#ffffff" stroke="none" x="509" y="184" width="13" height="28"/></g><g transform="translate(10,5) scale(1,1)"><path fill="none" stroke="#000000" d="M 509 184 L 522 184 L 522 212 L 509 212 L 509 184 Z Z" stroke-miterlimit="10"/></g><g transform="translate(10,5) scale(1,1)"><path fill="none" stroke="#000000" d="M 96 232 L 509 232" stroke-miterlimit="10"/></g><g transform="translate(10,5) scale(1,1)"><path fill="#000000" stroke="none" d="M 498.83732514237585 236.209517756016 L 509 232 L 498.83732514237585 227.790482243984"/></g><g transform="translate(10,5) scale(1,1)"><path fill="none" stroke="#000000" d="M 498.83732514237585 236.209517756016 L 509 232 L 498.83732514237585 227.790482243984 L 498.83732514237585 236.209517756016" stroke-miterlimit="10"/></g><g transform="translate(10,5) scale(1,1)"><g><path fill="none" stroke="none"/><text fill="#000000" stroke="none" font-family="Arial" font-size="13px" font-style="normal" font-weight="normal" text-decoration="none" x="230.206787109375" y="219.5">2 : saisir le commentaire</text></g></g><g transform="translate(10,5) scale(1,1)"><rect fill="#ffffff" stroke="none" x="509" y="232" width="13" height="28"/></g><g transform="translate(10,5) scale(1,1)"><path fill="none" stroke="#000000" d="M 509 232 L 522 232 L 522 260 L 509 260 L 509 232 Z Z" stroke-miterlimit="10"/></g><g transform="translate(10,5) scale(1,1)"><path fill="none" stroke="#000000" d="M 96 283 L 509 283" stroke-miterlimit="10"/></g><g transform="translate(10,5) scale(1,1)"><path fill="#000000" stroke="none" d="M 498.83732514237585 287.209517756016 L 509 283 L 498.83732514237585 278.790482243984"/></g><g transform="translate(10,5) scale(1,1)"><path fill="none" stroke="#000000" d="M 498.83732514237585 287.209517756016 L 509 283 L 498.83732514237585 278.790482243984 L 498.83732514237585 287.209517756016" stroke-miterlimit="10"/></g><g transform="translate(10,5) scale(1,1)"><g><path fill="none" stroke="none"/><text fill="#000000" stroke="none" font-family="Arial" font-size="13px" font-style="normal" font-weight="normal" text-decoration="none" x="240.5" y="279.5">3 : apuyer sur ajouter</text></g></g><g transform="translate(10,5) scale(1,1)"><rect fill="#ffffff" stroke="none" x="509" y="283" width="13" height="28"/></g><g transform="translate(10,5) scale(1,1)"><path fill="none" stroke="#000000" d="M 509 283 L 522 283 L 522 311 L 509 311 L 509 283 Z Z" stroke-miterlimit="10"/></g><g transform="translate(10,5) scale(1,1)"><path fill="none" stroke="#000000" d="M 516 312 L 546 312 L 546 332 L 522 332" stroke-miterlimit="10"/></g><g transform="translate(10,5) scale(1,1)"><path fill="#000000" stroke="none" d="M 532.1626748576241 327.790482243984 L 522 332 L 532.1626748576241 336.209517756016"/></g><g transform="translate(10,5) scale(1,1)"><path fill="none" stroke="#000000" d="M 532.1626748576241 327.790482243984 L 522 332 L 532.1626748576241 336.209517756016 L 532.1626748576241 327.790482243984" stroke-miterlimit="10"/></g><g transform="translate(10,5) scale(1,1)"><g><path fill="none" stroke="none"/><text fill="#000000" stroke="none" font-family="Arial" font-size="13px" font-style="normal" font-weight="normal" text-decoration="none" x="365.5" y="379.5">4 : mise a jour la liste du commentaire pour ce document</text></g></g><g transform="translate(10,5) scale(1,1)"><rect fill="#ffffff" stroke="none" x="509" y="332" width="13" height="28"/></g><g transform="translate(10,5) scale(1,1)"><path fill="none" stroke="#000000" d="M 509 332 L 522 332 L 522 360 L 509 360 L 509 332 Z Z" stroke-miterlimit="10"/></g><g transform="translate(10,5) scale(1,1)"><path fill="none" stroke="#000000" d="M 516 392 L 546 392 L 546 412 L 522 412" stroke-miterlimit="10"/></g><g transform="translate(10,5) scale(1,1)"><path fill="#000000" stroke="none" d="M 532.1626748576241 407.790482243984 L 522 412 L 532.1626748576241 416.209517756016"/></g><g transform="translate(10,5) scale(1,1)"><path fill="none" stroke="#000000" d="M 532.1626748576241 407.790482243984 L 522 412 L 532.1626748576241 416.209517756016 L 532.1626748576241 407.790482243984" stroke-miterlimit="10"/></g><g transform="translate(10,5) scale(1,1)"><g><path fill="none" stroke="none"/><text fill="#000000" stroke="none" font-family="Arial" font-size="13px" font-style="normal" font-weight="normal" text-decoration="none" x="413.5" y="459.5">5 : mise a jour des points d utilisateur</text></g></g><g transform="translate(10,5) scale(1,1)"><rect fill="#ffffff" stroke="none" x="509" y="412" width="13" height="28"/></g><g transform="translate(10,5) scale(1,1)"><path fill="none" stroke="#000000" d="M 509 412 L 522 412 L 522 440 L 509 440 L 509 412 Z Z" stroke-miterlimit="10"/></g></g></svg>