<svg version="1.1" xmlns="http://www.w3.org/2000/svg" xmlns:xlink="http://www.w3.org/1999/xlink" width="1004" height="660"><defs/><g><text fill="#eeeeee" stroke="none" font-family="Arial" font-size="24px" font-style="normal" font-weight="normal" text-decoration="none" x="0" y="0"></text><text fill="#eeeeee" stroke="none" font-family="Arial" font-size="24px" font-style="normal" font-weight="normal" text-decoration="none" x="0" y="30"></text><text fill="#eeeeee" stroke="none" font-family="Arial" font-size="24px" font-style="normal" font-weight="normal" text-decoration="none" x="0" y="60"></text><text fill="#eeeeee" stroke="none" font-family="Arial" font-size="24px" font-style="normal" font-weight="normal" text-decoration="none" x="0" y="90"></text><text fill="#eeeeee" stroke="none" font-family="Arial" font-size="24px" font-style="normal" font-weight="normal" text-decoration="none" x="0" y="120"></text><text fill="#eeeeee" stroke="none" font-family="Arial" font-size="24px" font-style="normal" font-weight="normal" text-decoration="none" x="0" y="150"></text><text fill="#eeeeee" stroke="none" font-family="Arial" font-size="24px" font-style="normal" font-weight="normal" text-decoration="none" x="0" y="180"></text><text fill="#eeeeee" stroke="none" font-family="Arial" font-size="24px" font-style="normal" font-weight="normal" text-decoration="none" x="0" y="210"></text><text fill="#eeeeee" stroke="none" font-family="Arial" font-size="24px" font-style="normal" font-weight="normal" text-decoration="none" x="0" y="240"></text><text fill="#eeeeee" stroke="none" font-family="Arial" font-size="24px" font-style="normal" font-weight="normal" text-decoration="none" x="0" y="270"></text><text fill="#eeeeee" stroke="none" font-family="Arial" font-size="24px" font-style="normal" font-weight="normal" text-decoration="none" x="0" y="300"></text><text fill="#eeeeee" stroke="none" font-family="Arial" font-size="24px" font-style="normal" font-weight="normal" text-decoration="none" x="0" y="330"></text><text fill="#eeeeee" stroke="none" font-family="Arial" font-size="24px" font-style="normal" font-weight="normal" text-decoration="none" x="0" y="360"></text><text fill="#eeeeee" stroke="none" font-family="Arial" font-size="24px" font-style="normal" font-weight="normal" text-decoration="none" x="0" y="390"></text><text fill="#eeeeee" stroke="none" font-family="Arial" font-size="24px" font-style="normal" font-weight="normal" text-decoration="none" x="0" y="420"></text><text fill="#eeeeee" stroke="none" font-family="Arial" font-size="24px" font-style="normal" font-weight="normal" text-decoration="none" x="0" y="450"></text><text fill="#eeeeee" stroke="none" font-family="Arial" font-size="24px" font-style="normal" font-weight="normal" text-decoration="none" x="0" y="480"></text><text fill="#eeeeee" stroke="none" font-family="Arial" font-size="24px" font-style="normal" font-weight="normal" text-decoration="none" x="0" y="510"></text><text fill="#eeeeee" stroke="none" font-family="Arial" font-size="24px" font-style="normal" font-weight="normal" text-decoration="none" x="0" y="540"></text><text fill="#eeeeee" stroke="none" font-family="Arial" font-size="24px" font-style="normal" font-weight="normal" text-decoration="none" x="0" y="570"></text><text fill="#eeeeee" stroke="none" font-family="Arial" font-size="24px" font-style="normal" font-weight="normal" text-decoration="none" x="0" y="600"></text><text fill="#eeeeee" stroke="none" font-family="Arial" font-size="24px" font-style="normal" font-weight="normal" text-decoration="none" x="0" y="630"></text><text fill="#eeeeee" stroke="none" font-family="Arial" font-size="24px" font-style="normal" font-weight="normal" text-decoration="none" x="200" y="0"></text><text fill="#eeeeee" stroke="none" font-family="Arial" font-size="24px" font-style="normal" font-weight="normal" text-decoration="none" x="200" y="30"></text><text fill="#eeeeee" stroke="none" font-family="Arial" font-size="24px" font-style="normal" font-weight="normal" text-decoration="none" x="200" y="60"></text><text fill="#eeeeee" stroke="none" font-family="Arial" font-size="24px" font-style="normal" font-weight="normal" text-decoration="none" x="200" y="90"></text><text fill="#eeeeee" stroke="none" font-family="Arial" font-size="24px" font-style="normal" font-weight="normal" text-decoration="none" x="200" y="120"></text><text fill="#eeeeee" stroke="none" font-family="Arial" font-size="24px" font-style="normal" font-weight="normal" text-decoration="none" x="200" y="150"></text><text fill="#eeeeee" stroke="none" font-family="Arial" font-size="24px" font-style="normal" font-weight="normal" text-decoration="none" x="200" y="180"></text><text fill="#eeeeee" stroke="none" font-family="Arial" font-size="24px" font-style="normal" font-weight="normal" text-decoration="none" x="200" y="210"></text><text fill="#eeeeee" stroke="none" font-family="Arial" font-size="24px" font-style="normal" font-weight="normal" text-decoration="none" x="200" y="240"></text><text fill="#eeeeee" stroke="none" font-family="Arial" font-size="24px" font-style="normal" font-weight="normal" text-decoration="none" x="200" y="270"></text><text fill="#eeeeee" stroke="none" font-family="Arial" font-size="24px" font-style="normal" font-weight="normal" text-decoration="none" x="200" y="300"></text><text fill="#eeeeee" stroke="none" font-family="Arial" font-size="24px" font-style="normal" font-weight="normal" text-decoration="none" x="200" y="330"></text><text fill="#eeeeee" stroke="none" font-family="Arial" font-size="24px" font-style="normal" font-weight="normal" text-decoration="none" x="200" y="360"></text><text fill="#eeeeee" stroke="none" font-family="Arial" font-size="24px" font-style="normal" font-weight="normal" text-decoration="none" x="200" y="390"></text><text fill="#eeeeee" stroke="none" font-family="Arial" font-size="24px" font-style="normal" font-weight="normal" text-decoration="none" x="200" y="420"></text><text fill="#eeeeee" stroke="none" font-family="Arial" font-size="24px" font-style="normal" font-weight="normal" text-decoration="none" x="200" y="450"></text><text fill="#eeeeee" stroke="none" font-family="Arial" font-size="24px" font-style="normal" font-weight="normal" text-decoration="none" x="200" y="480"></text><text fill="#eeeeee" stroke="none" font-family="Arial" font-size="24px" font-style="normal" font-weight="normal" text-decoration="none" x="200" y="510"></text><text fill="#eeeeee" stroke="none" font-family="Arial" font-size="24px" font-style="normal" font-weight="normal" text-decoration="none" x="200" y="540"></text><text fill="#eeeeee" stroke="none" font-family="Arial" font-size="24px" font-style="normal" font-weight="normal" text-decoration="none" x="200" y="570"></text><text fill="#eeeeee" stroke="none" font-family="Arial" font-size="24px" font-style="normal" font-weight="normal" text-decoration="none" x="200" y="600"></text><text fill="#eeeeee" stroke="none" font-family="Arial" font-size="24px" font-style="normal" font-weight="normal" text-decoration="none" x="200" y="630"></text><text fill="#eeeeee" stroke="none" font-family="Arial" font-size="24px" font-style="normal" font-weight="normal" text-decoration="none" x="400" y="0"></text><text fill="#eeeeee" stroke="none" font-family="Arial" font-size="24px" font-style="normal" font-weight="normal" text-decoration="none" x="400" y="30"></text><text fill="#eeeeee" stroke="none" font-family="Arial" font-size="24px" font-style="normal" font-weight="normal" text-decoration="none" x="400" y="60"></text><text fill="#eeeeee" stroke="none" font-family="Arial" font-size="24px" font-style="normal" font-weight="normal" text-decoration="none" x="400" y="90"></text><text fill="#eeeeee" stroke="none" font-family="Arial" font-size="24px" font-style="normal" font-weight="normal" text-decoration="none" x="400" y="120"></text><text fill="#eeeeee" stroke="none" font-family="Arial" font-size="24px" font-style="normal" font-weight="normal" text-decoration="none" x="400" y="150"></text><text fill="#eeeeee" stroke="none" font-family="Arial" font-size="24px" font-style="normal" font-weight="normal" text-decoration="none" x="400" y="180"></text><text fill="#eeeeee" stroke="none" font-family="Arial" font-size="24px" font-style="normal" font-weight="normal" text-decoration="none" x="400" y="210"></text><text fill="#eeeeee" stroke="none" font-family="Arial" font-size="24px" font-style="normal" font-weight="normal" text-decoration="none" x="400" y="240"></text><text fill="#eeeeee" stroke="none" font-family="Arial" font-size="24px" font-style="normal" font-weight="normal" text-decoration="none" x="400" y="270"></text><text fill="#eeeeee" stroke="none" font-family="Arial" font-size="24px" font-style="normal" font-weight="normal" text-decoration="none" x="400" y="300"></text><text fill="#eeeeee" stroke="none" font-family="Arial" font-size="24px" font-style="normal" font-weight="normal" text-decoration="none" x="400" y="330"></text><text fill="#eeeeee" stroke="none" font-family="Arial" font-size="24px" font-style="normal" font-weight="normal" text-decoration="none" x="400" y="360"></text><text fill="#eeeeee" stroke="none" font-family="Arial" font-size="24px" font-style="normal" font-weight="normal" text-decoration="none" x="400" y="390"></text><text fill="#eeeeee" stroke="none" font-family="Arial" font-size="24px" font-style="normal" font-weight="normal" text-decoration="none" x="400" y="420"></text><text fill="#eeeeee" stroke="none" font-family="Arial" font-size="24px" font-style="normal" font-weight="normal" text-decoration="none" x="400" y="450"></text><text fill="#eeeeee" stroke="none" font-family="Arial" font-size="24px" font-style="normal" font-weight="normal" text-decoration="none" x="400" y="480"></text><text fill="#eeeeee" stroke="none" font-family="Arial" font-size="24px" font-style="normal" font-weight="normal" text-decoration="none" x="400" y="510"></text><text fill="#eeeeee" stroke="none" font-family="Arial" font-size="24px" font-style="normal" font-weight="normal" text-decoration="none" x="400" y="540"></text><text fill="#eeeeee" stroke="none" font-family="Arial" font-size="24px" font-style="normal" font-weight="normal" text-decoration="none" x="400" y="570"></text><text fill="#eeeeee" stroke="none" font-family="Arial" font-size="24px" font-style="normal" font-weight="normal" text-decoration="none" x="400" y="600"></text><text fill="#eeeeee" stroke="none" font-family="Arial" font-size="24px" font-style="normal" font-weight="normal" text-decoration="none" x="400" y="630"></text><text fill="#eeeeee" stroke="none" font-family="Arial" font-size="24px" font-style="normal" font-weight="normal" text-decoration="none" x="600" y="0"></text><text fill="#eeeeee" stroke="none" font-family="Arial" font-size="24px" font-style="normal" font-weight="normal" text-decoration="none" x="600" y="30"></text><text fill="#eeeeee" stroke="none" font-family="Arial" font-size="24px" font-style="normal" font-weight="normal" text-decoration="none" x="600" y="60"></text><text fill="#eeeeee" stroke="none" font-family="Arial" font-size="24px" font-style="normal" font-weight="normal" text-decoration="none" x="600" y="90"></text><text fill="#eeeeee" stroke="none" font-family="Arial" font-size="24px" font-style="normal" font-weight="normal" text-decoration="none" x="600" y="120"></text><text fill="#eeeeee" stroke="none" font-family="Arial" font-size="24px" font-style="normal" font-weight="normal" text-decoration="none" x="600" y="150"></text><text fill="#eeeeee" stroke="none" font-family="Arial" font-size="24px" font-style="normal" font-weight="normal" text-decoration="none" x="600" y="180"></text><text fill="#eeeeee" stroke="none" font-family="Arial" font-size="24px" font-style="normal" font-weight="normal" text-decoration="none" x="600" y="210"></text><text fill="#eeeeee" stroke="none" font-family="Arial" font-size="24px" font-style="normal" font-weight="normal" text-decoration="none" x="600" y="240"></text><text fill="#eeeeee" stroke="none" font-family="Arial" font-size="24px" font-style="normal" font-weight="normal" text-decoration="none" x="600" y="270"></text><text fill="#eeeeee" stroke="none" font-family="Arial" font-size="24px" font-style="normal" font-weight="normal" text-decoration="none" x="600" y="300"></text><text fill="#eeeeee" stroke="none" font-family="Arial" font-size="24px" font-style="normal" font-weight="normal" text-decoration="none" x="600" y="330"></text><text fill="#eeeeee" stroke="none" font-family="Arial" font-size="24px" font-style="normal" font-weight="normal" text-decoration="none" x="600" y="360"></text><text fill="#eeeeee" stroke="none" font-family="Arial" font-size="24px" font-style="normal" font-weight="normal" text-decoration="none" x="600" y="390"></text><text fill="#eeeeee" stroke="none" font-family="Arial" font-size="24px" font-style="normal" font-weight="normal" text-decoration="none" x="600" y="420"></text><text fill="#eeeeee" stroke="none" font-family="Arial" font-size="24px" font-style="normal" font-weight="normal" text-decoration="none" x="600" y="450"></text><text fill="#eeeeee" stroke="none" font-family="Arial" font-size="24px" font-style="normal" font-weight="normal" text-decoration="none" x="600" y="480"></text><text fill="#eeeeee" stroke="none" font-family="Arial" font-size="24px" font-style="normal" font-weight="normal" text-decoration="none" x="600" y="510"></text><text fill="#eeeeee" stroke="none" font-family="Arial" font-size="24px" font-style="normal" font-weight="normal" text-decoration="none" x="600" y="540"></text><text fill="#eeeeee" stroke="none" font-family="Arial" font-size="24px" font-style="normal" font-weight="normal" text-decoration="none" x="600" y="570"></text><text fill="#eeeeee" stroke="none" font-family="Arial" font-size="24px" font-style="normal" font-weight="normal" text-decoration="none" x="600" y="600"></text><text fill="#eeeeee" stroke="none" font-family="Arial" font-size="24px" font-style="normal" font-weight="normal" text-decoration="none" x="600" y="630"></text><text fill="#eeeeee" stroke="none" font-family="Arial" font-size="24px" font-style="normal" font-weight="normal" text-decoration="none" x="800" y="0"></text><text fill="#eeeeee" stroke="none" font-family="Arial" font-size="24px" font-style="normal" font-weight="normal" text-decoration="none" x="800" y="30"></text><text fill="#eeeeee" stroke="none" font-family="Arial" font-size="24px" font-style="normal" font-weight="normal" text-decoration="none" x="800" y="60"></text><text fill="#eeeeee" stroke="none" font-family="Arial" font-size="24px" font-style="normal" font-weight="normal" text-decoration="none" x="800" y="90"></text><text fill="#eeeeee" stroke="none" font-family="Arial" font-size="24px" font-style="normal" font-weight="normal" text-decoration="none" x="800" y="120"></text><text fill="#eeeeee" stroke="none" font-family="Arial" font-size="24px" font-style="normal" font-weight="normal" text-decoration="none" x="800" y="150"></text><text fill="#eeeeee" stroke="none" font-family="Arial" font-size="24px" font-style="normal" font-weight="normal" text-decoration="none" x="800" y="180"></text><text fill="#eeeeee" stroke="none" font-family="Arial" font-size="24px" font-style="normal" font-weight="normal" text-decoration="none" x="800" y="210"></text><text fill="#eeeeee" stroke="none" font-family="Arial" font-size="24px" font-style="normal" font-weight="normal" text-decoration="none" x="800" y="240"></text><text fill="#eeeeee" stroke="none" font-family="Arial" font-size="24px" font-style="normal" font-weight="normal" text-decoration="none" x="800" y="270"></text><text fill="#eeeeee" stroke="none" font-family="Arial" font-size="24px" font-style="normal" font-weight="normal" text-decoration="none" x="800" y="300"></text><text fill="#eeeeee" stroke="none" font-family="Arial" font-size="24px" font-style="normal" font-weight="normal" text-decoration="none" x="800" y="330"></text><text fill="#eeeeee" stroke="none" font-family="Arial" font-size="24px" font-style="normal" font-weight="normal" text-decoration="none" x="800" y="360"></text><text fill="#eeeeee" stroke="none" font-family="Arial" font-size="24px" font-style="normal" font-weight="normal" text-decoration="none" x="800" y="390"></text><text fill="#eeeeee" stroke="none" font-family="Arial" font-size="24px" font-style="normal" font-weight="normal" text-decoration="none" x="800" y="420"></text><text fill="#eeeeee" stroke="none" font-family="Arial" font-size="24px" font-style="normal" font-weight="normal" text-decoration="none" x="800" y="450"></text><text fill="#eeeeee" stroke="none" font-family="Arial" font-size="24px" font-style="normal" font-weight="normal" text-decoration="none" x="800" y="480"></text><text fill="#eeeeee" stroke="none" font-family="Arial" font-size="24px" font-style="normal" font-weight="normal" text-decoration="none" x="800" y="510"></text><text fill="#eeeeee" stroke="none" font-family="Arial" font-size="24px" font-style="normal" font-weight="normal" text-decoration="none" x="800" y="540"></text><text fill="#eeeeee" stroke="none" font-family="Arial" font-size="24px" font-style="normal" font-weight="normal" text-decoration="none" x="800" y="570"></text><text fill="#eeeeee" stroke="none" font-family="Arial" font-size="24px" font-style="normal" font-weight="normal" text-decoration="none" x="800" y="600"></text><text fill="#eeeeee" stroke="none" font-family="Arial" font-size="24px" font-style="normal" font-weight="normal" text-decoration="none" x="800" y="630"></text><text fill="#eeeeee" stroke="none" font-family="Arial" font-size="24px" font-style="normal" font-weight="normal" text-decoration="none" x="1000" y="0"></text><text fill="#eeeeee" stroke="none" font-family="Arial" font-size="24px" font-style="normal" font-weight="normal" text-decoration="none" x="1000" y="30"></text><text fill="#eeeeee" stroke="none" font-family="Arial" font-size="24px" font-style="normal" font-weight="normal" text-decoration="none" x="1000" y="60"></text><text fill="#eeeeee" stroke="none" font-family="Arial" font-size="24px" font-style="normal" font-weight="normal" text-decoration="none" x="1000" y="90"></text><text fill="#eeeeee" stroke="none" font-family="Arial" font-size="24px" font-style="normal" font-weight="normal" text-decoration="none" x="1000" y="120"></text><text fill="#eeeeee" stroke="none" font-family="Arial" font-size="24px" font-style="normal" font-weight="normal" text-decoration="none" x="1000" y="150"></text><text fill="#eeeeee" stroke="none" font-family="Arial" font-size="24px" font-style="normal" font-weight="normal" text-decoration="none" x="1000" y="180"></text><text fill="#eeeeee" stroke="none" font-family="Arial" font-size="24px" font-style="normal" font-weight="normal" text-decoration="none" x="1000" y="210"></text><text fill="#eeeeee" stroke="none" font-family="Arial" font-size="24px" font-style="normal" font-weight="normal" text-decoration="none" x="1000" y="240"></text><text fill="#eeeeee" stroke="none" font-family="Arial" font-size="24px" font-style="normal" font-weight="normal" text-decoration="none" x="1000" y="270"></text><text fill="#eeeeee" stroke="none" font-family="Arial" font-size="24px" font-style="normal" font-weight="normal" text-decoration="none" x="1000" y="300"></text><text fill="#eeeeee" stroke="none" font-family="Arial" font-size="24px" font-style="normal" font-weight="normal" text-decoration="none" x="1000" y="330"></text><text fill="#eeeeee" stroke="none" font-family="Arial" font-size="24px" font-style="normal" font-weight="normal" text-decoration="none" x="1000" y="360"></text><text fill="#eeeeee" stroke="none" font-family="Arial" font-size="24px" font-style="normal" font-weight="normal" text-decoration="none" x="1000" y="390"></text><text fill="#eeeeee" stroke="none" font-family="Arial" font-size="24px" font-style="normal" font-weight="normal" text-decoration="none" x="1000" y="420"></text><text fill="#eeeeee" stroke="none" font-family="Arial" font-size="24px" font-style="normal" font-weight="normal" text-decoration="none" x="1000" y="450"></text><text fill="#eeeeee" stroke="none" font-family="Arial" font-size="24px" font-style="normal" font-weight="normal" text-decoration="none" x="1000" y="480"></text><text fill="#eeeeee" stroke="none" font-family="Arial" font-size="24px" font-style="normal" font-weight="normal" text-decoration="none" x="1000" y="510"></text><text fill="#eeeeee" stroke="none" font-family="Arial" font-size="24px" font-style="normal" font-weight="normal" text-decoration="none" x="1000" y="540"></text><text fill="#eeeeee" stroke="none" font-family="Arial" font-size="24px" font-style="normal" font-weight="normal" text-decoration="none" x="1000" y="570"></text><text fill="#eeeeee" stroke="none" font-family="Arial" font-size="24px" font-style="normal" font-weight="normal" text-decoration="none" x="1000" y="600"></text><text fill="#eeeeee" stroke="none" font-family="Arial" font-size="24px" font-style="normal" font-weight="normal" text-decoration="none" x="1000" y="630"></text><g transform="translate(2,10) scale(1,1)"><path fill="none" stroke="#000000" d="M 8 0 L 992 0 L 992 640 L 8 640 L 8 0" stroke-miterlimit="10"/></g><g transform="translate(2,10) scale(1,1)"><path fill="#ffffff" stroke="none" d="M 8 0 L 8 22 L 459.017578125 22 L 470.017578125 11 L 470.017578125 0 L 8 0"/></g><g transform="translate(2,10) scale(1,1)"><path fill="none" stroke="#000000" d="M 8 0 L 8 22 L 459.017578125 22 L 470.017578125 11 L 470.017578125 0 L 8 0 L 8 0" stroke-miterlimit="10"/></g><g transform="translate(2,10) scale(1,1)"><g><path fill="none" stroke="none"/><text fill="#000000" stroke="none" font-family="Arial" font-size="13px" font-style="normal" font-weight="normal" text-decoration="none" x="32.72998046875" y="17.5">Diagramme de séquence sytem Consultation et inscription dans un event</text></g></g><g transform="translate(2,10) scale(1,1)"><g><path fill="none" stroke="none"/><text fill="#000000" stroke="none" font-family="Arial" font-size="13px" font-style="normal" font-weight="bold" text-decoration="none" x="13" y="17.5">sd</text></g></g><g transform="translate(2,10) scale(1,1)"><path fill="#ffffff" stroke="none" d="M 162.1226669034091 47.3 C 162.1226669034091 43.82060576 165.0010686255909 41 168.5517578125 41 C 172.1024469994091 41 174.98084872159092 43.82060576 174.98084872159092 47.3 C 174.98084872159092 50.779394239999995 172.1024469994091 53.6 168.5517578125 53.6 C 165.0010686255909 53.6 162.1226669034091 50.779394239999995 162.1226669034091 47.3 Z"/></g><g transform="translate(2,10) scale(1,1)"><path fill="none" stroke="#000000" d="M 162.1226669034091 47.3 C 162.1226669034091 43.82060576 165.0010686255909 41 168.5517578125 41 C 172.1024469994091 41 174.98084872159092 43.82060576 174.98084872159092 47.3 C 174.98084872159092 50.779394239999995 172.1024469994091 53.6 168.5517578125 53.6 C 165.0010686255909 53.6 162.1226669034091 50.779394239999995 162.1226669034091 47.3 Z" stroke-miterlimit="10"/></g><g transform="translate(2,10) scale(1,1)"><path fill="none" stroke="#000000" d="M 168.5517578125 53.6 L 168.5517578125 66.4" stroke-miterlimit="10"/></g><g transform="translate(2,10) scale(1,1)"><path fill="none" stroke="#000000" d="M 161.7444850852273 58.4 L 175.35903053977273 58.4" stroke-miterlimit="10"/></g><g transform="translate(2,10) scale(1,1)"><path fill="none" stroke="#000000" d="M 168.5517578125 66.4 L 159.09721235795456 79" stroke-miterlimit="10"/></g><g transform="translate(2,10) scale(1,1)"><path fill="none" stroke="#000000" d="M 168.5517578125 66.4 L 178.00630326704547 79" stroke-miterlimit="10"/></g><g transform="translate(2,10) scale(1,1)"><g><path fill="none" stroke="none"/><text fill="#000000" stroke="none" font-family="Arial" font-size="13px" font-style="normal" font-weight="normal" text-decoration="none" x="168.5517578125" y="97.5"></text></g></g><g transform="translate(2,10) scale(1,1)"><g><path fill="none" stroke="none"/><text fill="#000000" stroke="none" font-family="Arial" font-size="13px" font-style="normal" font-weight="bold" text-decoration="none" x="113.65087890625" y="112.5">: Utilisateur Inscrits</text></g></g><g transform="translate(2,10) scale(1,1)"><path fill="none" stroke="#000000" d="M 169.5 118 L 169.5 640" stroke-miterlimit="10" stroke-dasharray="3"/></g><g transform="translate(2,10) scale(1,1)"><rect fill="#C0C0C0" stroke="none" x="591" y="47" width="71.736328125" height="39" opacity="0.2"/></g><g transform="translate(2,10) scale(1,1)"><rect fill="#ffffff" stroke="none" x="584" y="40" width="71.736328125" height="39"/></g><g transform="translate(2,10) scale(1,1)"><path fill="none" stroke="#000000" d="M 584 40 L 655.736328125 40 L 655.736328125 79 L 584 79 L 584 40 Z Z" stroke-miterlimit="10"/></g><g transform="translate(2,10) scale(1,1)"><g><path fill="none" stroke="none"/><text fill="#000000" stroke="none" font-family="Arial" font-size="13px" font-style="normal" font-weight="bold" text-decoration="none" x="598.197265625" y="59.5">System</text></g></g><g transform="translate(2,10) scale(1,1)"><path fill="none" stroke="#000000" d="M 620.5 80 L 620.5 640" stroke-miterlimit="10" stroke-dasharray="3"/></g><g transform="translate(2,10) scale(1,1)"><path fill="#ffffff" stroke="none" d="M 504.665283203125 88 L 734.334716796875 88 Q 744.334716796875 88 744.334716796875 98 L 744.334716796875 97 Q 744.334716796875 107 734.334716796875 107 L 504.665283203125 107 Q 494.665283203125 107 494.665283203125 97 L 494.665283203125 98 Q 494.665283203125 88 504.665283203125 88 Z"/></g><g transform="translate(2,10) scale(1,1)"><path fill="none" stroke="#000000" d="M 504.665283203125 88 L 734.334716796875 88 Q 744.334716796875 88 744.334716796875 98 L 744.334716796875 97 Q 744.334716796875 107 734.334716796875 107 L 504.665283203125 107 Q 494.665283203125 107 494.665283203125 97 L 494.665283203125 98 Q 494.665283203125 88 504.665283203125 88 Z" stroke-miterlimit="10"/></g><g transform="translate(2,10) scale(1,1)"><g><path fill="none" stroke="none"/><text fill="#000000" stroke="none" font-family="Arial" font-size="13px" font-style="normal" font-weight="normal" text-decoration="none" x="500.83056640625" y="104">{Utilisateur déjà inscits dans l'application}</text></g></g><g transform="translate(2,10) scale(1,1)"><rect fill="#ffffff" stroke="none" x="128" y="160" width="535" height="29"/></g><g transform="translate(2,10) scale(1,1)"><path fill="none" stroke="#000000" d="M 128 160 L 663 160 L 663 189 L 128 189 L 128 160 Z Z" stroke-miterlimit="10"/></g><g transform="translate(2,10) scale(1,1)"><path fill="none" stroke="#000000" d="M 128 160 L 128 182 L 153.1708984375 182 L 164.1708984375 171 L 164.1708984375 160 L 128 160 L 128 160" stroke-miterlimit="10"/></g><g transform="translate(2,10) scale(1,1)"><g><path fill="none" stroke="none"/><text fill="#000000" stroke="none" font-family="Arial" font-size="13px" font-style="normal" font-weight="normal" text-decoration="none" x="344.208740234375" y="177.5">Consultation des events</text></g></g><g transform="translate(2,10) scale(1,1)"><g><path fill="none" stroke="none"/><text fill="#000000" stroke="none" font-family="Arial" font-size="13px" font-style="normal" font-weight="bold" text-decoration="none" x="133" y="177.5">ref</text></g></g><g transform="translate(2,10) scale(1,1)"><path fill="none" stroke="#000000" d="M 169 240 L 613 240" stroke-miterlimit="10"/></g><g transform="translate(2,10) scale(1,1)"><path fill="#000000" stroke="none" d="M 602.8373251423759 244.209517756016 L 613 240 L 602.8373251423758 235.790482243984"/></g><g transform="translate(2,10) scale(1,1)"><path fill="none" stroke="#000000" d="M 602.8373251423759 244.209517756016 L 613 240 L 602.8373251423758 235.790482243984 L 602.8373251423759 244.209517756016" stroke-miterlimit="10"/></g><g transform="translate(2,10) scale(1,1)"><g><path fill="none" stroke="none"/><text fill="#000000" stroke="none" font-family="Arial" font-size="13px" font-style="normal" font-weight="normal" text-decoration="none" x="319.114990234375" y="236.5">1 : Selectionner un event</text></g></g><g transform="translate(2,10) scale(1,1)"><rect fill="#ffffff" stroke="none" x="613" y="240" width="13" height="28"/></g><g transform="translate(2,10) scale(1,1)"><path fill="none" stroke="#000000" d="M 613 240 L 626 240 L 626 268 L 613 268 L 613 240 Z Z" stroke-miterlimit="10"/></g><g transform="translate(2,10) scale(1,1)"><path fill="none" stroke="#000000" d="M 626 264 L 656 264 L 656 284 L 626 284" stroke-miterlimit="10"/></g><g transform="translate(2,10) scale(1,1)"><path fill="#000000" stroke="none" d="M 636.1626748576241 279.790482243984 L 626 284 L 636.1626748576241 288.209517756016"/></g><g transform="translate(2,10) scale(1,1)"><path fill="none" stroke="#000000" d="M 636.1626748576241 279.790482243984 L 626 284 L 636.1626748576241 288.209517756016 L 636.1626748576241 279.790482243984" stroke-miterlimit="10"/></g><g transform="translate(2,10) scale(1,1)"><g><path fill="none" stroke="none"/><text fill="#000000" stroke="none" font-family="Arial" font-size="13px" font-style="normal" font-weight="normal" text-decoration="none" x="663.5" y="276.5">2 : Afficher la page d event avec tous les details</text></g></g><g transform="translate(2,10) scale(1,1)"><rect fill="#ffffff" stroke="none" x="613" y="284" width="13" height="28"/></g><g transform="translate(2,10) scale(1,1)"><path fill="none" stroke="#000000" d="M 613 284 L 626 284 L 626 312 L 613 312 L 613 284 Z Z" stroke-miterlimit="10"/></g><g transform="translate(2,10) scale(1,1)"><path fill="none" stroke="#000000" d="M 169 386 L 613 386" stroke-miterlimit="10"/></g><g transform="translate(2,10) scale(1,1)"><path fill="#000000" stroke="none" d="M 602.8373251423759 390.209517756016 L 613 386 L 602.8373251423758 381.790482243984"/></g><g transform="translate(2,10) scale(1,1)"><path fill="none" stroke="#000000" d="M 602.8373251423759 390.209517756016 L 613 386 L 602.8373251423758 381.790482243984 L 602.8373251423759 390.209517756016" stroke-miterlimit="10"/></g><g transform="translate(2,10) scale(1,1)"><g><path fill="none" stroke="none"/><text fill="#000000" stroke="none" font-family="Arial" font-size="13px" font-style="normal" font-weight="normal" text-decoration="none" x="321.5" y="382.5">3 : Cliquer sur BooK UP</text></g></g><g transform="translate(2,10) scale(1,1)"><rect fill="#ffffff" stroke="none" x="613" y="386" width="13" height="28"/></g><g transform="translate(2,10) scale(1,1)"><path fill="none" stroke="#000000" d="M 613 386 L 626 386 L 626 414 L 613 414 L 613 386 Z Z" stroke-miterlimit="10"/></g><g transform="translate(2,10) scale(1,1)"><path fill="none" stroke="#000000" d="M 620 464 L 650 464 L 650 484 L 626 484" stroke-miterlimit="10"/></g><g transform="translate(2,10) scale(1,1)"><path fill="#000000" stroke="none" d="M 636.1626748576241 479.790482243984 L 626 484 L 636.1626748576241 488.209517756016"/></g><g transform="translate(2,10) scale(1,1)"><path fill="none" stroke="#000000" d="M 636.1626748576241 479.790482243984 L 626 484 L 636.1626748576241 488.209517756016 L 636.1626748576241 479.790482243984" stroke-miterlimit="10"/></g><g transform="translate(2,10) scale(1,1)"><g><path fill="none" stroke="none"/><text fill="#000000" stroke="none" font-family="Arial" font-size="13px" font-style="normal" font-weight="normal" text-decoration="none" x="638.5" y="508.5">4 : ouvrir la page de site d inscrit de la page</text></g></g><g transform="translate(2,10) scale(1,1)"><rect fill="#ffffff" stroke="none" x="613" y="484" width="13" height="28"/></g><g transform="translate(2,10) scale(1,1)"><path fill="none" stroke="#000000" d="M 613 484 L 626 484 L 626 512 L 613 512 L 613 484 Z Z" stroke-miterlimit="10"/></g><g transform="translate(2,10) scale(1,1)"><rect fill="#ffffff" stroke="none" x="136" y="568" width="567" height="39"/></g><g transform="translate(2,10) scale(1,1)"><path fill="none" stroke="#000000" d="M 136 568 L 703 568 L 703 607 L 136 607 L 136 568 Z Z" stroke-miterlimit="10"/></g><g transform="translate(2,10) scale(1,1)"><path fill="none" stroke="#000000" d="M 136 568 L 136 590 L 161.1708984375 590 L 172.1708984375 579 L 172.1708984375 568 L 136 568 L 136 568" stroke-miterlimit="10"/></g><g transform="translate(2,10) scale(1,1)"><g><path fill="none" stroke="none"/><text fill="#000000" stroke="none" font-family="Arial" font-size="13px" font-style="normal" font-weight="normal" text-decoration="none" x="364.952392578125" y="585.5">Inscription dans un enent</text></g></g><g transform="translate(2,10) scale(1,1)"><g><path fill="none" stroke="none"/><text fill="#000000" stroke="none" font-family="Arial" font-size="13px" font-style="normal" font-weight="bold" text-decoration="none" x="141" y="585.5">ref</text></g></g><g transform="translate(2,10) scale(1,1)"><path fill="none" stroke="#000000" d="M 56 344 L 951 344 L 951 623 L 56 623 L 56 344" stroke-miterlimit="10"/></g><g transform="translate(2,10) scale(1,1)"><path fill="#ffffff" stroke="none" d="M 56 344 L 56 366 L 281.853515625 366 L 292.853515625 355 L 292.853515625 344 L 56 344"/></g><g transform="translate(2,10) scale(1,1)"><path fill="none" stroke="#000000" d="M 56 344 L 56 366 L 281.853515625 366 L 292.853515625 355 L 292.853515625 344 L 56 344 L 56 344" stroke-miterlimit="10"/></g><g transform="translate(2,10) scale(1,1)"><g><path fill="none" stroke="none"/><text fill="#000000" stroke="none" font-family="Arial" font-size="13px" font-style="normal" font-weight="normal" text-decoration="none" x="85.07177734375" y="361.5">Nombre limite d'inscrit non attient</text></g></g><g transform="translate(2,10) scale(1,1)"><g><path fill="none" stroke="none"/><text fill="#000000" stroke="none" font-family="Arial" font-size="13px" font-style="normal" font-weight="bold" text-decoration="none" x="61" y="361.5">opt</text></g></g><g transform="translate(2,10) scale(1,1)"><path fill="none" stroke="#000000" d="M 80 424 L 903 424 L 903 616 L 80 616 L 80 424" stroke-miterlimit="10"/></g><g transform="translate(2,10) scale(1,1)"><path fill="#ffffff" stroke="none" d="M 80 424 L 80 446 L 225.64453125 446 L 236.64453125 435 L 236.64453125 424 L 80 424"/></g><g transform="translate(2,10) scale(1,1)"><path fill="none" stroke="#000000" d="M 80 424 L 80 446 L 225.64453125 446 L 236.64453125 435 L 236.64453125 424 L 80 424 L 80 424" stroke-miterlimit="10"/></g><g transform="translate(2,10) scale(1,1)"><g><path fill="none" stroke="none"/><text fill="#000000" stroke="none" font-family="Arial" font-size="13px" font-style="normal" font-weight="normal" text-decoration="none" x="104.72998046875" y="441.5">lien vers l'inscription</text></g></g><g transform="translate(2,10) scale(1,1)"><g><path fill="none" stroke="none"/><text fill="#000000" stroke="none" font-family="Arial" font-size="13px" font-style="normal" font-weight="bold" text-decoration="none" x="85" y="441.5">alt</text></g></g><g transform="translate(2,10) scale(1,1)"><g><path fill="none" stroke="none"/><text fill="#000000" stroke="none" font-family="Arial" font-size="13px" font-style="normal" font-weight="normal" text-decoration="none" x="99.5" y="474.5">[lien externe de l'applicatoin]</text></g></g><g transform="translate(2,10) scale(1,1)"><path fill="none" stroke="#000000" d="M 80 521 L 903 521" stroke-miterlimit="10" stroke-dasharray="10,3"/></g><g transform="translate(2,10) scale(1,1)"><g><path fill="none" stroke="none"/><text fill="#000000" stroke="none" font-family="Arial" font-size="13px" font-style="normal" font-weight="normal" text-decoration="none" x="99.5" y="548.5">[lien vers une page d'inscription par UBooK]</text></g></g></g></svg>
